<?xml version="1.0" encoding="UTF-8"?>
<svg xmlns="http://www.w3.org/2000/svg" xmlns:xlink="http://www.w3.org/1999/xlink" width="125px" height="27px" viewBox="0 0 123 27" version="1.1">
<g id="surface1">
<path style=" stroke:none;fill-rule:evenodd;fill:rgb(0%,0%,0%);fill-opacity:1;" d="M 7.886719 0 L 0 0 L 0 26.445312 L 7.886719 26.445312 Z M 46.480469 4.40625 C 46.480469 6.84375 44.511719 8.8125 42.097656 8.8125 C 39.683594 8.8125 37.714844 6.832031 37.714844 4.40625 C 37.714844 1.976562 39.683594 0 42.097656 0 C 44.511719 0 46.480469 1.976562 46.480469 4.40625 Z M 42.097656 21.15625 C 44.511719 21.15625 46.480469 19.191406 46.480469 16.753906 C 46.480469 14.324219 44.511719 12.347656 42.097656 12.347656 C 39.683594 12.347656 37.714844 14.324219 37.714844 16.753906 C 37.714844 19.179688 39.683594 21.15625 42.097656 21.15625 Z M 33.3125 0 L 25.425781 0 L 25.425781 26.445312 L 33.3125 26.445312 Z M 16.660156 26.445312 C 19.078125 26.445312 21.042969 24.476562 21.042969 22.039062 C 21.042969 19.609375 19.078125 17.632812 16.660156 17.632812 C 14.246094 17.632812 12.28125 19.609375 12.28125 22.039062 C 12.28125 24.464844 14.246094 26.445312 16.660156 26.445312 Z M 55.253906 7.328125 L 59.644531 7.328125 L 59.644531 10.230469 C 60.875 8.519531 62.53125 6.929688 65.449219 6.929688 C 68.183594 6.929688 70.140625 8.273438 71.144531 10.304688 C 72.664062 8.273438 74.683594 6.929688 77.566406 6.929688 C 81.714844 6.929688 84.238281 9.574219 84.238281 14.257812 L 84.238281 26.476562 L 79.875 26.476562 L 79.875 15.589844 C 79.875 12.550781 78.464844 10.917969 76.019531 10.917969 C 73.570312 10.917969 71.945312 12.582031 71.945312 15.667969 L 71.945312 26.464844 L 67.585938 26.464844 L 67.585938 15.546875 C 67.585938 12.570312 66.144531 10.90625 63.726562 10.90625 C 61.3125 10.90625 59.65625 12.722656 59.65625 15.65625 L 59.65625 26.453125 L 55.253906 26.453125 Z M 88.203125 20.878906 L 88.203125 20.953125 L 88.210938 20.933594 C 88.210938 24.777344 91.417969 26.839844 94.988281 26.839844 C 97.90625 26.839844 99.894531 25.605469 101.1875 24.046875 L 101.1875 26.445312 L 105.441406 26.445312 L 105.441406 15.097656 C 105.441406 12.59375 104.800781 10.5625 103.386719 9.1875 C 102.0625 7.8125 99.9375 7.050781 97.082031 7.050781 C 94.046875 7.050781 91.996094 7.660156 89.867188 8.605469 L 91.054688 12.054688 C 92.777344 11.335938 94.367188 10.863281 96.496094 10.863281 C 99.5625 10.863281 101.21875 12.3125 101.21875 15.03125 L 101.21875 15.503906 C 99.746094 15.03125 98.226562 14.710938 96.101562 14.710938 C 91.449219 14.710938 88.203125 16.742188 88.203125 20.878906 Z M 101.292969 18.277344 L 101.292969 19.589844 C 101.292969 22.015625 99.09375 23.683594 96.207031 23.683594 C 94.121094 23.683594 92.5 22.628906 92.5 20.78125 L 92.5 20.707031 C 92.5 18.707031 94.15625 17.515625 96.964844 17.515625 C 98.699219 17.515625 100.171875 17.847656 101.292969 18.277344 Z M 109.824219 0 L 114.226562 0 L 114.226562 26.464844 L 109.824219 26.464844 Z M 123 0 L 118.597656 0 L 118.597656 26.464844 L 123 26.464844 Z M 123 0 "/>
</g>
</svg>
